<svg viewBox="0 0 1024 1068.42" xmlns="http://www.w3.org/2000/svg"><path d="m512 369.038c90.738 0 164.295 73.557 164.295 164.295s-73.557 164.295-164.295 164.295-164.295-73.557-164.295-164.295c.104-90.696 73.6-164.192 164.285-164.295zm0 260.323c53.035 0 96.028-42.992 96.028-96.027s-42.993-96.029-96.028-96.029-96.028 42.993-96.028 96.028c.052 53.014 43.014 95.977 96.023 96.028zm-.228 244.487h-.87c-187.432 0-339.376-151.943-339.376-339.375s151.944-339.377 339.376-339.377 339.376 151.944 339.376 339.376c0 53.934-12.58 104.93-34.97 150.213l.888-1.984v.456c-18.18 35.593-54.58 59.54-96.572 59.54-.56 0-1.12-.004-1.68-.013h.085c-60.77-.077-110-49.357-110-110.136v-273.068h68.266v273.067c0 23.124 18.746 41.87 41.87 41.87h.32c.148.002.324.003.5.003 15.587 0 29.106-8.853 35.802-21.806l.106-.225c16.72-34.104 26.496-74.22 26.496-116.617 0-149.05-120.83-269.88-269.88-269.88s-269.882 120.83-269.882 269.88 120.83 269.88 269.88 269.88c35.17 0 68.766-6.726 99.575-18.962l-1.824.64 24.666 63.716c-36.202 14.432-78.157 22.8-122.067 22.8h-.09.004zm-303.786-852.515h608.028c114.815.13 207.856 93.17 207.986 207.973v608.04c-.13 114.815-93.17 207.856-207.973 207.986h-608.04c-114.817-.13-207.857-93.17-207.987-207.972v-608.04c.13-114.817 93.17-207.858 207.973-207.988h.012zm608.028 955.733c77.133-.078 139.64-62.586 139.72-139.712v-608.034c-.08-77.134-62.587-139.642-139.713-139.72h-608.035c-77.133.078-139.64 62.586-139.72 139.712v608.035c.08 77.133 62.587 139.64 139.713 139.72h.007z"/></svg>